inDegrees=no
num_controls=7
num_derivatives=13
num_iterations=125
num_multipliers=7
num_parameters=0
num_slacks=7
num_states=26
objective=5.278875
objective_accelerations=0.451240
objective_balance=0.014419
objective_effort=0.384047
objective_height=4.382146
objective_ligament=0.047022
solver_duration=1120.640940
status=Solve_Succeeded
success=true
DataType=double
version=3
OpenSimVersion=4.4-2022-07-23-0e9fedc
endheader
time	/jointset/ground_pelvis/pelvis_tilt/value	/jointset/ground_pelvis/pelvis_tx/value	/jointset/ground_pelvis/pelvis_ty/value	/jointset/hip_r/hip_flexion_r/value	/jointset/hip_r/hip_adduction_r/value	/jointset/hip_r/hip_rotation_r/value	/jointset/back/lumbar_extension/value	/jointset/patellofemoral_r/patellar_flexion_r/value	/jointset/knee_r/knee_flexion_r/value	/jointset/knee_r/knee_adduction_r/value	/jointset/knee_r/knee_rotation_r/value	/jointset/ankle_r/ankle_angle_r/value	/jointset/subtalar_r/subtalar_angle_r/value	/jointset/ground_pelvis/pelvis_tilt/speed	/jointset/ground_pelvis/pelvis_tx/speed	/jointset/ground_pelvis/pelvis_ty/speed	/jointset/hip_r/hip_flexion_r/speed	/jointset/hip_r/hip_adduction_r/speed	/jointset/hip_r/hip_rotation_r/speed	/jointset/back/lumbar_extension/speed	/jointset/patellofemoral_r/patellar_flexion_r/speed	/jointset/knee_r/knee_flexion_r/speed	/jointset/knee_r/knee_adduction_r/speed	/jointset/knee_r/knee_rotation_r/speed	/jointset/ankle_r/ankle_angle_r/speed	/jointset/subtalar_r/subtalar_angle_r/speed	/forceset/tau_hip_flexion_r	/forceset/tau_hip_adduction_r	/forceset/tau_hip_rotation_r	/forceset/tau_knee_flexion_r	/forceset/tau_ankle_angle_r	/forceset/tau_subtalar_angle_r	/forceset/tau_lumbar_extension	lambda_cid13_p0	lambda_cid14_p0	lambda_cid14_p1	lambda_cid14_p2	lambda_cid14_p3	lambda_cid14_p4	lambda_cid14_p5	/jointset/ground_pelvis/pelvis_tilt/accel	/jointset/ground_pelvis/pelvis_tx/accel	/jointset/ground_pelvis/pelvis_ty/accel	/jointset/hip_r/hip_flexion_r/accel	/jointset/hip_r/hip_adduction_r/accel	/jointset/hip_r/hip_rotation_r/accel	/jointset/back/lumbar_extension/accel	/jointset/patellofemoral_r/patellar_flexion_r/accel	/jointset/knee_r/knee_flexion_r/accel	/jointset/knee_r/knee_adduction_r/accel	/jointset/knee_r/knee_rotation_r/accel	/jointset/ankle_r/ankle_angle_r/accel	/jointset/subtalar_r/subtalar_angle_r/accel	gamma_cid13_p0	gamma_cid14_p0	gamma_cid14_p1	gamma_cid14_p2	gamma_cid14_p3	gamma_cid14_p4	gamma_cid14_p5
1	-0.1570274117895853	0.01174342549792452	0.7002200870327118	1.185086068039962	-0.2314409716708714	-0.1294047572821037	-0.7853678081742209	1.345698331619552	1.345698331619596	-0.1744417471697994	0.1742073016179295	0.4362929633573155	0.1898016263213317	0.0669516263401807	0.006325669267032611	0.01586896928056054	-0.1019815008141754	-0.00161997490443392	0.004383306090632364	0.004645566236561221	-0.02365354074191169	-0.02365354074191257	0.01411193617475188	-5.842061336511651e-06	0.009700878690302244	0.002057333329984076	-0.2825017772444837	0.02971832359442127	0.01658704125969297	-0.4257326040797702	-0.0394921033013528	0.0107696558676248	0.3277739470027539	-0.04316844032317386	-62.51561688359893	-8.667702234635394	4.543959856345839	6.024008820702933	-750.0414301577545	72.64973453477111	1.061932743095835	0.1926843149874529	1.449946065416217	-4.476542734922229	0.2383759261830413	-0.1876174248257292	0.3152308214084225	-4.392480927807953	-4.392480927808069	0.9596469077177384	0.00113102855160529	-1.159873424175645	-0.1697138123642979	3.307420643886867e-10	-9.750150629133708e-10	1.604637262136067e-08	9.464673841555318e-09	2.004394738961826e-09	-4.817494188043868e-09	2.267320480104906e-08
1.01	-0.1563058747053291	0.0118165201844958	0.7004511071464214	1.183843513140912	-0.231445548031086	-0.1293680619503956	-0.7853028874584042	1.345242751051194	1.345242751051299	-0.1742501296451944	0.1742071352820624	0.4363322002663679	0.1898132187741813	0.07731169212293318	0.008316394770617599	0.03033152102370851	-0.1465112988505917	0.000694026724937921	0.002968973305967737	0.008536489422494974	-0.06745676202799591	-0.06745676202799625	0.02423807779839448	-2.088793095556907e-05	-0.001825608334379275	0.0002556625514481314	-0.2833078988984067	0.02980096426727142	0.01663321845991857	-0.42559036115459	-0.03981753181044859	0.01075330360675599	0.3288707716494207	-0.04316066265542474	-62.65448086808988	-8.694852653546368	4.543416434799694	5.814762977543337	-750.714586210678	72.62221869713375	1.016430210124993	0.2057359465139664	1.443877859399226	-4.438470041925864	0.2263163326572603	-0.1163566763013795	0.4557099398561577	-4.373371742330694	-4.373371742330791	1.043075326831191	-0.001831864143933258	-1.144853954243412	-0.1862079199740278	3.213090877566271e-09	3.027312935915371e-09	3.513019933891127e-08	3.698473836979621e-08	1.355840209438932e-09	-9.966784211169097e-09	5.708292914788986e-08
1.02	-0.1554820596203881	0.01191021598179572	0.7008266464036893	1.182156205920719	-0.2314273035647579	-0.1293451130407022	-0.785193120136142	1.344349312467312	1.34434931246746	-0.1739564551969233	0.1742070165936154	0.4362570087825565	0.1898066316773682	0.08740722647607937	0.01044589141275936	0.04477279799236861	-0.1909319650440076	0.002944190408040205	0.001634021680731397	0.01361488751524508	-0.1112251438469626	-0.1112251438469628	0.03452332090778915	3.68742239017177e-06	-0.01318479986421793	-0.001578576602099523	-0.2841140205522711	0.02988360494013031	0.01667939566004831	-0.425448118229408	-0.04014296031954011	0.01073695134590858	0.3299675962961453	-0.04315800478646505	-62.80156274879679	-8.718120708416063	4.536175454811241	5.601763644616793	-751.529836727555	72.63637869296312	1.0090264571745	0.2204385426988414	1.445691110518654	-4.454716366322136	0.2256083369291277	-0.1717411929400655	0.5527258027713652	-4.385513034384492	-4.385513034384696	0.9914672048681685	0.009055273144551087	-1.126414325207036	-0.1762274873666189	6.612242498425585e-09	9.732698168597817e-09	5.530888021003296e-08	6.809714511501725e-08	-3.9510584661271e-09	-1.415774093179042e-08	9.616644541676918e-08
1.03	-0.1545585609392088	0.01202571272874534	0.7013464422960844	1.180025498181599	-0.2313868213183803	-0.1293351802877044	-0.785027272778706	1.343018262357477	1.343018262357648	-0.1735592295513773	0.1742073185551383	0.4360686400684092	0.189781421712929	0.09725176212430454	0.01265786230082787	0.05917767511007942	-0.2351634918582447	0.005147170669400175	0.0003626134784228797	0.01969074003749171	-0.1549887904130626	-0.154988790413061	0.0449416207086954	5.965731969124176e-05	-0.02450328265395858	-0.003480619010891096	-0.2844906847658955	0.03002921076318707	0.01670578935956602	-0.4246213834033689	-0.0412180716612325	0.01076788904119239	0.3305089885776145	-0.04317582942309361	-63.1594143888063	-8.737062725138518	4.50460968767361	5.852561017919152	-751.7453395309915	72.57008527824588	0.9660584272261468	0.2222351166047579	1.436576512823246	-4.400453947971286	0.2168935729874684	-0.1033193367148805	0.6554383860529273	-4.372379335915051	-4.372379335914899	1.069984255213636	0.004336233621236738	-1.136716406331267	-0.1997493292057618	1.001666761732247e-08	1.646566561795226e-08	7.549873306231354e-08	9.924620841347282e-08	-9.305491265632377e-09	-1.83389187411617e-08	1.35297653439955e-07
1.04	-0.1535378386398273	0.01216346093552317	0.7020100250597413	1.177453858552532	-0.2313244591289621	-0.1293376573572536	-0.7847965822142086	1.341249458008343	1.341249458008516	-0.1730572263303338	0.1742082738927641	0.4357666562962461	0.1897366799820857	0.1068519501157036	0.01489618337840349	0.07353017224492499	-0.2791183430323764	0.007320179020684725	-0.0008479428374170703	0.02658352892381134	-0.1987759917068561	-0.1987759917068518	0.05547883601007458	0.0001343626409022093	-0.03590781146264497	-0.005484929882475942	-0.2848673489795313	0.03017481658627329	0.01673218305884252	-0.4237946485773533	-0.0422931830029063	0.01079882673654768	0.3310503808590788	-0.04319848591230058	-63.52550807846021	-8.752026550244569	4.466216791452235	6.098126803574374	-752.104835835152	72.54560379495226	0.9601569258093045	0.2257085806001682	1.435215113945608	-4.39938123830099	0.2196139549140868	-0.1595708156462845	0.7161130755858038	-4.390223979923295	-4.390223979923308	1.015250304962791	0.01280235792647442	-1.143623528996376	-0.1966811799253005	1.292194999473982e-08	2.12343515362494e-08	9.339390267556658e-08	1.289865301677362e-07	-1.140009349127758e-08	-2.18885029042195e-08	1.684405460434769e-07
1.05	-0.1524222871050643	0.01232377227582154	0.7028168136116451	1.174444063049261	-0.2312405429144751	-0.1293520258670878	-0.7844928665628714	1.339042783295079	1.33904278329525	-0.1724493567954313	0.1742100782459128	0.435350265972826	0.1896713785157186	0.1162200658675149	0.0171753031380746	0.08781285268748895	-0.3227911215311252	0.009455564920534509	-0.002018835800612463	0.03430006621858839	-0.2425503575363467	-0.2425503575363408	0.06611024402481266	0.0002282905119048086	-0.04737793931058494	-0.007592925247549114	-0.2849768798495853	0.03029084848959788	0.01680397507884166	-0.4227999777698157	-0.04306592462150639	0.01077178094085146	0.3314002968035024	-0.04322108785860798	-63.77400633328625	-8.779734851075652	4.439168110442066	6.229723591598047	-752.1159072169288	72.44697146637371	0.9194007347663136	0.2303937431288741	1.422586572865308	-4.343775534310092	0.2093985575326761	-0.09479590305875837	0.8204937872979176	-4.36975706481347	-4.36975706481342	1.089363090106899	0.007995430889592573	-1.149860391222757	-0.220456601240944	1.581163416148594e-08	2.594165365670101e-08	1.112173634376e-07	1.586828287487435e-07	-1.339282601148968e-08	-2.541834976583e-08	2.013963037901342e-07
1.06	-0.1512142020458034	0.01250715082761109	0.7037659873806648	1.170999029885253	-0.2311354933110117	-0.1293778927797875	-0.7841077715924041	1.33639862208745	1.336398622087605	-0.1717347177723273	0.1742128833636257	0.4348189437752127	0.1895844775184101	0.1253586550152878	0.01950962567663911	0.102007215668267	-0.3661658751758294	0.01154685682087556	-0.003147623419897894	0.04285939274834642	-0.2862732905799008	-0.2862732905798928	0.07683273365465522	0.000334515550980208	-0.05889418629972211	-0.009804836070306777	-0.2850864107197178	0.0304068803929581	0.01687576709860982	-0.421805306962308	-0.04383866624007925	0.01074473514524264	0.3317502127478592	-0.04324810422929211	-64.03081996998644	-8.803381805266746	4.405169400713338	6.356129389459155	-752.2727729385697	72.39025081761764	0.9142516050016817	0.2367491363787197	1.417551621588431	-4.339776267491971	0.2107951550123996	-0.1511497468641991	0.8846709225819033	-4.379937422736079	-4.37993742273598	1.033466627983724	0.01526179154094211	-1.152847357236059	-0.2174642714622171	1.842195066387019e-08	3.021820282593449e-08	1.26338414067457e-07	1.850486053796353e-07	-1.549676794712022e-08	-2.87065383943824e-08	2.293082608080285e-07
1.07	-0.1499158210205306	0.0127141554313319	0.7048566063722027	1.167121784975088	-0.2310097662934623	-0.129414955138705	-0.7836330234682577	1.333317572141829	1.333317572141967	-0.1709125277982415	0.1742168253365297	0.4341722172002926	0.1894749127901299	0.1342826496014279	0.02190118223521762	0.1160959619932022	-0.4092263587021359	0.01358961523351353	-0.004260745879953569	0.05221826393092879	-0.3299187966822294	-0.3299187966822284	0.08761618957595607	0.0004546154294069139	-0.07046016979608527	-0.01212835312138846	-0.2848410650966597	0.03043545105677128	0.0169834285671921	-0.4205844462893606	-0.04444231120031045	0.01070623213288498	0.3317861679726588	-0.04327775788117565	-64.20536887185663	-8.815387011912934	4.36678658484283	6.455379698027294	-752.0038028800875	72.3076268508803	0.8762454996763893	0.2418384391959509	1.401436598358595	-4.280665322607189	0.1997064942081303	-0.09075897168705765	0.9806999933918928	-4.354176165123289	-4.354176165124596	1.10242548205384	0.01054725944271382	-1.1598298670928	-0.2427846054849922	2.101740718410752e-08	3.447183960414571e-08	1.413157194775172e-07	2.112372265876485e-07	-1.760662527718792e-08	-3.198187286160192e-08	2.569519305531162e-07
1.08	-0.1485292456265478	0.01294537150535707	0.7060874929190722	1.162815639044154	-0.2308638736298484	-0.1294630218173919	-0.7830608456768225	1.329800603342956	1.329800603343066	-0.1699821751834005	0.1742220009429283	0.4334095595861515	0.1893415150546258	0.14299752875781	0.02435191973750927	0.1300607267347033	-0.4519460793247544	0.01557998603889279	-0.005348487384428233	0.06234532620534244	-0.3734570612302422	-0.3734570612302487	0.09846526181127983	0.0005812422457752997	-0.08208039414270198	-0.01457143751460341	-0.2845957194736913	0.03046402172063801	0.01709109003557638	-0.4193635856164413	-0.04504595616050887	0.01066772912065042	0.3318221231973807	-0.04331116297437828	-64.38830374966041	-8.823330804882522	4.321439549695284	6.549273259273492	-751.8822985108671	72.26655962374744	0.8724285190501944	0.2485853251212056	1.392755304901618	-4.271623686754268	0.2003176335607304	-0.1460735557478853	1.038309140948101	-4.358489111873016	-4.358489111873019	1.046589890788342	0.01656717912915024	-1.163695527287031	-0.2413777398888689	2.311813238010318e-08	3.754797455436921e-08	1.522101014829769e-07	2.333236914828625e-07	-1.874796969160299e-08	-3.464730229216145e-08	2.770078471516919e-07
1.09	-0.1470565281774051	0.01320140670455504	0.7074573506366848	1.158084048140006	-0.230698355006293	-0.1295219784295691	-0.7823836644664416	1.325848870370791	1.325848870370808	-0.1689431545608996	0.1742284889524244	0.4325304359950664	0.1891830747532021	0.1515125005778789	0.02686656323386639	0.1438842734780998	-0.4943078816771472	0.01751329553094526	-0.006440932184350927	0.07321115944072258	-0.4168621175084935	-0.4168621175085012	0.1093460911411195	0.0007154688372198912	-0.09375284855954119	-0.01713852962376266	-0.2840016432716319	0.03043951806780947	0.01723391781276057	-0.4179421185296788	-0.04542771224899637	0.01059328978037697	0.3315559845632816	-0.04334568608138453	-64.475183101723	-8.833177869490562	4.279954159937414	6.594148563914682	-751.3501943503629	72.17101677016819	0.83602093668156	0.25461634870156	1.373165361741448	-4.208817431311964	0.1883075456463223	-0.09052099898177893	1.128756950195772	-4.327406605651698	-4.327406605652042	1.109914853665516	0.0117796886381207	-1.170298817272572	-0.2676050869932722	2.518121497534132e-08	4.053451697420235e-08	1.627938262728693e-07	2.550980357890592e-07	-1.981562290591406e-08	-3.726632590471424e-08	2.964864347065113e-07
